<svg width="18" height="18" viewBox="0 0 18 18" fill="none" xmlns="http://www.w3.org/2000/svg">
<path d="M15.8183 2.48499C14.7011 2.36604 13.6014 2.11743 12.5417 1.74416C11.5692 1.40047 10.6363 0.953474 9.75917 0.410827C9.5303 0.271939 9.26771 0.198498 9 0.198498C8.73229 0.198498 8.4697 0.271939 8.24083 0.410827L8.24 0.411661C7.36301 0.95387 6.43047 1.40058 5.45833 1.74416C4.39909 2.11727 3.30003 2.36589 2.18333 2.48499C1.82462 2.52153 1.49222 2.68988 1.25052 2.95745C1.00881 3.22501 0.875002 3.57275 0.875 3.93333V8.2625C0.875607 9.86 1.30315 11.4283 2.11337 12.8051C2.9236 14.1819 4.08706 15.3172 5.48333 16.0933L8.29167 17.6542C8.50793 17.7758 8.75188 17.8397 9 17.8397C9.24812 17.8397 9.49207 17.7758 9.70833 17.6542L12.5167 16.0933C13.9129 15.3172 15.0764 14.1819 15.8866 12.8051C16.6969 11.4283 17.1244 9.86 17.125 8.2625V3.93416C17.1255 3.57356 16.9921 3.22562 16.7507 2.95774C16.5093 2.68987 16.177 2.52194 15.8183 2.48499ZM12.3158 7.48666L9.19083 10.82C9.04238 10.9784 8.83794 11.0725 8.62109 11.0823C8.40425 11.0921 8.19215 11.0168 8.03 10.8725L6.155 9.20583C6.06906 9.13439 5.99837 9.04639 5.94713 8.94707C5.8959 8.84775 5.86516 8.73914 5.85675 8.6277C5.84834 8.51626 5.86244 8.40427 5.89819 8.29839C5.93395 8.19251 5.99064 8.0949 6.06488 8.01137C6.13913 7.92784 6.22942 7.8601 6.33038 7.81218C6.43134 7.76426 6.5409 7.73713 6.65256 7.73242C6.76422 7.7277 6.87568 7.74549 6.98032 7.78473C7.08496 7.82397 7.18064 7.88386 7.26167 7.96083L8.53083 9.08833L11.1008 6.34666C11.1788 6.26371 11.2729 6.19756 11.3774 6.15227C11.4819 6.10699 11.5945 6.08353 11.7083 6.08333C11.8709 6.08324 12.03 6.13071 12.1659 6.21989C12.3018 6.30907 12.4087 6.43606 12.4734 6.58522C12.538 6.73438 12.5576 6.8992 12.5298 7.05937C12.5019 7.21954 12.427 7.36807 12.3158 7.48666Z" fill="#B7BDFD"/>
</svg>
