<svg width="19" height="18" viewBox="0 0 19 18" fill="none" xmlns="http://www.w3.org/2000/svg">
<path d="M5.26794 5.03595L3.77441 5.15133C3.35883 5.18345 2.9887 5.40126 2.75887 5.7489L1.03642 8.354C0.862114 8.61764 0.834404 8.94757 0.962248 9.23659C1.09013 9.52561 1.35292 9.72702 1.66521 9.7754L3.0327 9.98719C3.3526 8.28956 4.11838 6.5961 5.26794 5.03595ZM8.51515 15.4696L8.72697 16.8371C8.77535 17.1494 8.97676 17.4122 9.26575 17.5401C9.38355 17.5924 9.511 17.6194 9.63989 17.6195C9.8208 17.6194 9.99766 17.5659 10.1484 17.4659L12.7535 15.7435C13.1012 15.5136 13.319 15.1434 13.351 14.7279L13.4664 13.2344C11.9062 14.384 10.2128 15.1498 8.51515 15.4696ZM8.00085 14.5218C8.04832 14.5218 8.09606 14.5179 8.14371 14.5099C8.85495 14.391 9.54046 14.1907 10.1944 13.9285L4.5739 8.30798C4.31168 8.96188 4.11135 9.64739 3.99243 10.3587C3.94556 10.639 4.0396 10.9247 4.24057 11.1257L7.37671 14.2618C7.54358 14.4286 7.76879 14.5218 8.00085 14.5218ZM16.7473 8.02363C18.1227 5.3646 18.1736 2.55465 18.1017 1.23682C18.0771 0.785273 17.7171 0.425276 17.2655 0.400663C17.0139 0.387092 16.762 0.380366 16.51 0.380495C15.0364 0.380495 12.7047 0.603692 10.4787 1.7551C8.70963 2.67014 6.38988 4.68497 5.02127 7.33283C5.03744 7.34546 5.05323 7.35886 5.06811 7.37374L11.1287 13.4343C11.1435 13.4492 11.1569 13.4649 11.1695 13.4811C13.8174 12.1125 15.8322 9.79271 16.7473 8.02363ZM10.9062 4.02491C11.8908 3.04037 13.4928 3.04027 14.4774 4.02491C14.9544 4.50184 15.2171 5.13601 15.2171 5.81052C15.2171 6.48503 14.9544 7.1192 14.4774 7.59613C13.9852 8.08835 13.3384 8.33451 12.6919 8.33457C12.0451 8.33461 11.3986 8.08848 10.9062 7.59613C10.4293 7.1192 10.1666 6.48503 10.1666 5.81052C10.1666 5.13601 10.4293 4.50184 10.9062 4.02491Z" fill="#B7BDFD"/>
<path d="M11.6205 6.88186C12.2112 7.4726 13.1725 7.47263 13.7632 6.88186C14.0494 6.59567 14.207 6.2152 14.207 5.81049C14.207 5.40578 14.0494 5.02531 13.7632 4.73915C13.4679 4.44376 13.0799 4.29609 12.6918 4.29609C12.3039 4.29609 11.9159 4.44376 11.6205 4.73915C11.3344 5.02531 11.1767 5.40578 11.1767 5.81049C11.1767 6.2152 11.3343 6.5957 11.6205 6.88186ZM1.39813 14.5871C1.52739 14.5871 1.65665 14.5378 1.75523 14.4391L3.40414 12.7902C3.60138 12.593 3.60138 12.2732 3.40414 12.076C3.20694 11.8787 2.88714 11.8787 2.68991 12.076L1.041 13.7249C0.84376 13.9221 0.84376 14.2419 1.041 14.4391C1.08784 14.4861 1.14351 14.5233 1.2048 14.5487C1.26609 14.5741 1.33179 14.5871 1.39813 14.5871ZM4.91528 13.5871C4.71807 13.3899 4.39828 13.3899 4.20104 13.5871L1.03086 16.7573C0.833625 16.9545 0.833625 17.2743 1.03086 17.4715C1.12948 17.5701 1.25874 17.6194 1.388 17.6194C1.51726 17.6194 1.64651 17.5701 1.7451 17.4715L4.91524 14.3013C5.11251 14.1041 5.11251 13.7843 4.91528 13.5871ZM5.71214 15.0982L4.06326 16.7471C3.86603 16.9444 3.86603 17.2641 4.06326 17.4614C4.16188 17.56 4.29114 17.6093 4.42036 17.6093C4.54959 17.6093 4.67888 17.56 4.77747 17.4614L6.42638 15.8125C6.62361 15.6152 6.62361 15.2955 6.42638 15.0982C6.22917 14.901 5.90938 14.901 5.71214 15.0982Z" fill="#B7BDFD"/>
</svg>
