<svg width="19" height="18" viewBox="0 0 19 18" fill="none" xmlns="http://www.w3.org/2000/svg">
<path d="M18.5 7.5V10.5C18.5 11.3274 17.8274 12 17 12H16.592C16.0178 15.3996 13.061 18 9.5 18C9.34087 18 9.18826 17.9368 9.07574 17.8243C8.96321 17.7117 8.9 17.5591 8.9 17.4C8.9 17.2409 8.96321 17.0883 9.07574 16.9757C9.18826 16.8632 9.34087 16.8 9.5 16.8C12.8084 16.8 15.5 14.1084 15.5 10.8V7.2C15.5 3.8916 12.8084 1.2 9.5 1.2C6.1916 1.2 3.5 3.8916 3.5 7.2V11.4C3.5 11.5591 3.43679 11.7117 3.32426 11.8243C3.21174 11.9368 3.05913 12 2.9 12H2C1.60227 11.9997 1.22093 11.8415 0.939691 11.5603C0.658455 11.2791 0.500318 10.8977 0.5 10.5V7.5C0.5 6.6726 1.1726 6 2 6H2.408C2.9828 2.6004 5.9396 0 9.5 0C13.0604 0 16.0178 2.6004 16.592 6H17C17.8274 6 18.5 6.6726 18.5 7.5ZM9.5 2.4C6.8534 2.4 4.7 4.5534 4.7 7.2V10.2C4.7 12.8466 6.8534 15 9.5 15C12.1466 15 14.3 12.8466 14.3 10.2V7.2C14.3 4.5534 12.1466 2.4 9.5 2.4Z" fill="#B7BDFD"/>
</svg>
