<svg width="21" height="20" viewBox="0 0 21 20" fill="none" xmlns="http://www.w3.org/2000/svg">
<path d="M8.29343 4.80096H4.85291C3.35071 4.80096 3.0115 4.21946 2.47846 2.59612C2.18771 2.74149 1.25732 7.03003 5.48287 7.03003V16.7701L4.94827 17.7151L8.21919 17.3758L7.63925 16.6247V8.24149L9.40797 7.22387V16.1886C9.4791 16.1264 9.52902 16.0829 9.5739 16.0438C9.77361 15.8699 9.87343 15.783 11.2978 14.5168C11.4917 14.3507 11.5159 14.0565 11.5159 13.7173V8.12034L13.2846 7.07849V14.1534C13.2846 15.0256 13.1135 16.019 12.1201 16.9882C13.7434 16.8186 15.3441 16.4067 15.3441 13.7173V7.01367C19.0656 6.72586 18.1911 2.73624 17.9108 2.59612C17.3778 4.21946 17.0386 4.80096 15.5364 4.80096H13.8037L13.8043 4.80594C13.7665 4.80255 13.7305 4.80096 13.6965 4.80096H12.8L13.2846 5.47937V5.81858C13.0966 5.92704 12.9432 6.01607 12.7965 6.10114C12.4518 6.30115 12.1449 6.47923 11.5159 6.8362C11.5159 5.88642 11.0152 5.30977 10.7648 5.21285L7.63925 7.03003V6.32739L6.76545 5.47937H7.63925L8.29343 4.80096Z" fill="#FF445A"/>
</svg>
