<svg width="20" height="20" viewBox="0 0 20 20" fill="none" xmlns="http://www.w3.org/2000/svg">
<path d="M7.5 1.66667C7.5 1.20643 7.8731 0.833332 8.33333 0.833332H11.6667C12.1269 0.833332 12.5 1.20643 12.5 1.66667C12.5 2.1269 12.1269 2.5 11.6667 2.5H8.33333C7.8731 2.5 7.5 2.1269 7.5 1.66667Z" fill="#B7BDFD"/>
<path fill-rule="evenodd" clip-rule="evenodd" d="M2.5 11.6667C2.5 7.52453 5.85786 4.16667 10 4.16667C14.1421 4.16667 17.5 7.52453 17.5 11.6667C17.5 15.8088 14.1421 19.1667 10 19.1667C5.85786 19.1667 2.5 15.8088 2.5 11.6667ZM13.9226 8.92259C14.248 8.59715 14.248 8.06951 13.9226 7.74408C13.5972 7.41864 13.0695 7.41864 12.7441 7.74408L9.41074 11.0774C9.08531 11.4028 9.08531 11.9305 9.41074 12.2559C9.73618 12.5814 10.2638 12.5814 10.5893 12.2559L13.9226 8.92259Z" fill="#B7BDFD"/>
</svg>
