<svg width="136" viewBox="0 0 136 0" fill="none" xmlns="http://www.w3.org/2000/svg">
<path d="M-2.04948 -2.33127e-07C-2.04948 1.47276 -0.855572 2.66667 0.617187 2.66667C2.08995 2.66667 3.28385 1.47276 3.28385 2.33127e-07C3.28385 -1.47276 2.08995 -2.66667 0.617188 -2.66667C-0.855572 -2.66667 -2.04948 -1.47276 -2.04948 -2.33127e-07ZM133.029 1.15758e-05C133.029 1.47277 134.223 2.66668 135.695 2.66668C137.168 2.66668 138.362 1.47277 138.362 1.2042e-05C138.362 -1.47275 137.168 -2.66665 135.695 -2.66665C134.223 -2.66666 133.029 -1.47275 133.029 1.15758e-05ZM0.617187 0.5L135.695 0.500012L135.695 -0.499988L0.617188 -0.5L0.617187 0.5Z" fill="#3E496D"/>
</svg>
