<svg width="137" viewBox="0 0 137 0" fill="none" xmlns="http://www.w3.org/2000/svg">
<path d="M-2.66667 0C-2.66667 1.47276 -1.47276 2.66667 0 2.66667C1.47276 2.66667 2.66667 1.47276 2.66667 0C2.66667 -1.47276 1.47276 -2.66667 0 -2.66667C-1.47276 -2.66667 -2.66667 -1.47276 -2.66667 0ZM133.833 0C133.833 1.47276 135.027 2.66667 136.5 2.66667C137.973 2.66667 139.167 1.47276 139.167 0C139.167 -1.47276 137.973 -2.66667 136.5 -2.66667C135.027 -2.66667 133.833 -1.47276 133.833 0ZM0 0.5H136.5V-0.5H0L0 0.5Z" fill="#3E496D"/>
</svg>
