<svg width="126" viewBox="0 0 126 0" fill="none" xmlns="http://www.w3.org/2000/svg">
<path d="M-2.66667 0C-2.66667 1.47276 -1.47276 2.66667 0 2.66667C1.47276 2.66667 2.66667 1.47276 2.66667 0C2.66667 -1.47276 1.47276 -2.66667 0 -2.66667C-1.47276 -2.66667 -2.66667 -1.47276 -2.66667 0ZM123.333 0C123.333 1.47276 124.527 2.66667 126 2.66667C127.473 2.66667 128.667 1.47276 128.667 0C128.667 -1.47276 127.473 -2.66667 126 -2.66667C124.527 -2.66667 123.333 -1.47276 123.333 0ZM0 0.5H126V-0.5H0L0 0.5Z" fill="#3E496D"/>
</svg>
